<?xml version="1.0" encoding="utf-8"?>
<svg version="1.1" xmlns:xlink="http://www.w3.org/1999/xlink" width="25px" height="26px" xmlns="http://www.w3.org/2000/svg">
  <g transform="matrix(1 0 0 1 -366 -137 )">
    <path d="M 8.93110795454546 9.90234375  C 9.03764204545455 10.00390625  9.09090909090909 10.1336805555556  9.09090909090909 10.2916666666667  L 9.09090909090909 20.0416666666667  C 9.09090909090909 20.1996527777778  9.03764204545455 20.3294270833333  8.93110795454546 20.4309895833333  C 8.82457386363636 20.5325520833333  8.68844696969697 20.5833333333333  8.52272727272727 20.5833333333333  L 7.38636363636364 20.5833333333333  C 7.22064393939394 20.5833333333333  7.08451704545455 20.5325520833333  6.97798295454545 20.4309895833333  C 6.87144886363636 20.3294270833333  6.81818181818182 20.1996527777778  6.81818181818182 20.0416666666667  L 6.81818181818182 10.2916666666667  C 6.81818181818182 10.1336805555556  6.87144886363636 10.00390625  6.97798295454545 9.90234375  C 7.08451704545455 9.80078125  7.22064393939394 9.75  7.38636363636364 9.75  L 8.52272727272727 9.75  C 8.68844696969697 9.75  8.82457386363636 9.80078125  8.93110795454546 9.90234375  Z M 13.4765625 9.90234375  C 13.5830965909091 10.00390625  13.6363636363636 10.1336805555556  13.6363636363636 10.2916666666667  L 13.6363636363636 20.0416666666667  C 13.6363636363636 20.1996527777778  13.5830965909091 20.3294270833333  13.4765625 20.4309895833333  C 13.3700284090909 20.5325520833333  13.2339015151515 20.5833333333333  13.0681818181818 20.5833333333333  L 11.9318181818182 20.5833333333333  C 11.7660984848485 20.5833333333333  11.6299715909091 20.5325520833333  11.5234375 20.4309895833333  C 11.4169034090909 20.3294270833333  11.3636363636364 20.1996527777778  11.3636363636364 20.0416666666667  L 11.3636363636364 10.2916666666667  C 11.3636363636364 10.1336805555556  11.4169034090909 10.00390625  11.5234375 9.90234375  C 11.6299715909091 9.80078125  11.7660984848485 9.75  11.9318181818182 9.75  L 13.0681818181818 9.75  C 13.2339015151515 9.75  13.3700284090909 9.80078125  13.4765625 9.90234375  Z M 18.0220170454545 9.90234375  C 18.1285511363636 10.00390625  18.1818181818182 10.1336805555556  18.1818181818182 10.2916666666667  L 18.1818181818182 20.0416666666667  C 18.1818181818182 20.1996527777778  18.1285511363636 20.3294270833333  18.0220170454545 20.4309895833333  C 17.9154829545455 20.5325520833333  17.7793560606061 20.5833333333333  17.6136363636364 20.5833333333333  L 16.4772727272727 20.5833333333333  C 16.311553030303 20.5833333333333  16.1754261363636 20.5325520833333  16.0688920454545 20.4309895833333  C 15.9623579545455 20.3294270833333  15.9090909090909 20.1996527777778  15.9090909090909 20.0416666666667  L 15.9090909090909 10.2916666666667  C 15.9090909090909 10.1336805555556  15.9623579545455 10.00390625  16.0688920454545 9.90234375  C 16.1754261363636 9.80078125  16.311553030303 9.75  16.4772727272727 9.75  L 17.6136363636364 9.75  C 17.7793560606061 9.75  17.9154829545455 9.80078125  18.0220170454545 9.90234375  Z M 20.3302556818182 23.232421875  C 20.413115530303 23.0236545138889  20.4545454545455 22.7951388888889  20 22.546875  L 20 7  L 5 7  L 5 22.546875  C 4.54545454545455 22.7951388888889  4.58688446969697 23.0236545138889  4.66974431818182 23.232421875  C 4.75260416666667 23.4411892361111  4.83842329545455 23.5935329861111  4.92720170454545 23.689453125  C 5.01598011363636 23.7853732638889  5.078125 23.8333333333333  5.11363636363636 23.8333333333333  L 19.8863636363636 23.8333333333333  C 19.921875 23.8333333333333  19.9840198863636 23.7853732638889  20.0727982954545 23.689453125  C 20.1615767045455 23.5935329861111  20.2473958333333 23.4411892361111  20.3302556818182 23.232421875  Z M 9.39275568181818 2.35286458333333  L 8.52272727272727 4.33333333333333  L 16.4772727272727 4.33333333333333  L 15.625 2.35286458333333  C 15.5421401515152 2.25130208333333  15.4415246212121 2.18923611111111  15.3231534090909 2.16666666666667  L 9.69460227272727 2.16666666666667  C 9.57623106060606 2.18923611111111  9.47561553030303 2.25130208333333  9.39275568181818 2.35286458333333  Z M 24.8401988636364 4.48567708333333  C 24.9467329545455 4.58723958333333  25 4.71701388888889  25 4.875  L 25 5.95833333333333  C 25 6.11631944444444  24.9467329545455 6.24609375  24.8401988636364 6.34765625  C 24.7336647727273 6.44921875  24.5975378787879 6.5  24.4318181818182 6.5  L 22.7272727272727 6.5  L 22.7272727272727 22.546875  C 22.7272727272727 23.4835069444444  22.4491003787879 24.2931857638889  21.8927556818182 24.9759114583333  C 21.3364109848485 25.6586371527778  20.6676136363636 26  19.8863636363636 26  L 5.11363636363636 26  C 4.33238636363636 26  3.66358901515152 25.669921875  3.10724431818182 25.009765625  C 2.55089962121212 24.349609375  2.27272727272727 23.5512152777778  2.27272727272727 22.6145833333333  L 2.27272727272727 6.5  L 0.568181818181818 6.5  C 0.402462121212121 6.5  0.266335227272727 6.44921875  0.159801136363636 6.34765625  C 0.0532670454545454 6.24609375  0 6.11631944444444  0 5.95833333333333  L 0 4.875  C 0 4.71701388888889  0.0532670454545454 4.58723958333333  0.159801136363636 4.48567708333333  C 0.266335227272727 4.38411458333333  0.402462121212121 4.33333333333333  0.568181818181818 4.33333333333333  L 6.0546875 4.33333333333333  L 7.29758522727273 1.50651041666667  C 7.47514204545455 1.08897569444444  7.79474431818182 0.733506944444442  8.25639204545455 0.440104166666668  C 8.71803977272727 0.146701388888887  9.18560606060606 0  9.65909090909091 0  L 15.3409090909091 0  C 15.8143939393939 0  16.2819602272727 0.146701388888887  16.7436079545455 0.440104166666668  C 17.2052556818182 0.733506944444442  17.5248579545455 1.08897569444444  17.7024147727273 1.50651041666667  L 18.9453125 4.33333333333333  L 24.4318181818182 4.33333333333333  C 24.5975378787879 4.33333333333333  24.7336647727273 4.38411458333333  24.8401988636364 4.48567708333333  Z " fill-rule="nonzero" fill="#000000" stroke="none" transform="matrix(1 0 0 1 366 137 )" />
  </g>
</svg>